<?xml version="1.0" encoding="UTF-8"?>
<svg xmlns="http://www.w3.org/2000/svg" width="64" height="82" viewBox="0 0 64 82" fill="none">
  <path d="M29.8373 0.932658C30.5487 -0.287555 32.3168 -0.316135 33.0681 0.880438L36.4917 6.33392C36.8565 6.91495 36.8708 7.64711 36.529 8.24167L10.5096 53.5014C10.176 54.0816 9.55473 54.441 8.88055 54.4438L1.89419 54.4725C0.440785 54.4784 -0.471517 52.921 0.255193 51.6745L29.8373 0.932658Z" fill="#2C3240"></path>
  <path d="M40.5598 12.305C39.8325 11.0425 37.9912 11.0524 37.2778 12.3225L34.3021 17.6201C33.9833 18.1877 33.9855 18.8787 34.3081 19.4443L53.5305 53.1457C53.8626 53.7279 54.4839 54.0895 55.1591 54.0936L61.4005 54.131C62.8512 54.1397 63.7668 52.5892 63.0479 51.3414L40.5598 12.305Z" fill="#05D3AD"></path>
  <path d="M30.1031 32.6471C30.5942 31.7722 31.8602 31.7593 32.3693 32.6241L44.054 52.4698C44.5609 53.3307 43.9338 54.4116 42.9276 54.4116H37.2141C36.7715 54.4116 36.359 54.1892 36.1188 53.821L32.4405 48.1822C31.896 47.3475 30.6433 47.4092 30.1851 48.2933L27.3777 53.7099C27.1544 54.1407 26.7066 54.4116 26.2176 54.4116H20.1029C19.1085 54.4116 18.48 53.3536 18.9632 52.4928L30.1031 32.6471Z" fill="#05D3AD"></path>
  <path d="M8.56177 52.4821L10.9913 48.2493C11.2231 47.8455 11.6559 47.5961 12.1249 47.5961H16.504C17.5221 47.5961 18.1474 48.6999 17.6169 49.5604L15.0075 53.7932C14.7706 54.1773 14.349 54.4116 13.8945 54.4116H9.69541C8.69549 54.4116 8.06764 53.343 8.56177 52.4821Z" fill="#2C3240"></path>
  <path d="M9.19351 82C14.5052 82 17.3079 79.2726 17.3079 73.8972V64.8941C17.3079 63.5437 16.5872 62.8022 15.2793 62.8022C13.9714 62.8022 13.224 63.5437 13.224 64.8941V73.9237C13.224 76.9689 11.836 78.5047 9.19351 78.5047C6.55099 78.5047 5.13631 76.9689 5.13631 73.9237V64.8941C5.13631 63.5437 4.38894 62.8022 3.08103 62.8022C1.74642 62.8022 0.999045 63.5437 0.999045 64.8941V73.8972C0.999045 79.2726 3.8551 82 9.19351 82Z" fill="#2C3240"></path>
  <path d="M25.7069 82C29.2036 82 31.5258 80.4112 31.5258 77.6838C31.5258 75.7243 30.2713 74.5857 27.9757 74.1885L25.1731 73.6854C24.3189 73.5265 23.9185 73.1293 23.9185 72.5203C23.9185 71.7259 24.5859 71.1698 26.1874 71.1698C27.0415 71.1698 28.0024 71.4081 29.1502 71.9112C30.9119 72.6792 31.9262 70.1371 30.2979 69.3427C29.0434 68.7072 27.7355 68.4424 26.134 68.4424C22.7174 68.4424 20.3151 70.1106 20.3151 72.7321C20.3151 74.6651 21.543 75.8832 23.7584 76.2804L26.5611 76.7835C27.4419 76.9424 27.9224 77.2866 27.9224 77.9486C27.9224 78.7165 27.2551 79.2461 25.7336 79.2461C24.5858 79.2461 23.3847 79.0343 21.9433 78.4252C20.2084 77.7103 19.2208 80.1994 21.0358 81.0732C22.3704 81.7352 24.1321 82 25.7069 82Z" fill="#2C3240"></path>
  <path d="M40.6995 82C42.1142 82 43.7157 81.6822 44.9435 80.9938C46.7586 80.0405 45.8778 77.3925 43.7958 78.3458C42.8082 78.8224 41.6337 79.0078 40.7796 79.0078C38.5908 79.0078 37.363 78.1075 37.0694 76.0686H44.9435C45.771 76.0686 46.1981 75.7243 46.1981 75.0623C46.1981 70.9844 43.7958 68.4424 39.9788 68.4424C36.0551 68.4424 33.2524 71.2228 33.2524 75.2212C33.2524 79.352 36.0818 82 40.6995 82ZM40.139 71.0904C41.7939 71.0904 42.7548 72.0701 42.8616 74.0031H37.0694C37.3363 72.1496 38.4307 71.0904 40.139 71.0904Z" fill="#2C3240"></path>
  <path d="M50.6911 81.947C51.999 81.947 52.7197 81.2056 52.7197 79.9081V74.9829C52.7197 73.1293 53.6806 72.1496 55.7092 71.9642L56.3231 71.9112C57.5243 71.7788 58.0047 71.1169 57.9513 70.0312C57.8979 68.8396 57.4175 68.3894 56.5367 68.4424C54.5881 68.5483 53.1735 69.4221 52.5595 70.958V70.5078C52.5595 69.2103 51.8389 68.4954 50.5843 68.4954C49.3298 68.4954 48.6091 69.2103 48.6091 70.5078V79.9081C48.6091 81.2056 49.3298 81.947 50.6911 81.947Z" fill="#2C3240"></path>
  <path d="M61.7045 66.324C63.1725 66.324 64 65.6091 64 64.3381C64 63.0141 63.1725 62.3256 61.7045 62.3256C60.2097 62.3256 59.3823 63.0141 59.3823 64.3381C59.3823 65.6091 60.2097 66.324 61.7045 66.324ZM61.7045 81.9206C63.0124 81.9206 63.7064 81.1262 63.7064 79.7492V70.6932C63.7064 69.2897 62.9857 68.4954 61.7045 68.4954C60.3966 68.4954 59.6759 69.2897 59.6759 70.6932V79.7492C59.6759 81.1262 60.3966 81.9206 61.7045 81.9206Z" fill="#2C3240"></path>
</svg>
